<svg width="154" height="72" viewBox="0 0 154 72" fill="none" xmlns="http://www.w3.org/2000/svg">
<g clip-path="url(#clip0_3055_2437)">
<path d="M19.3281 28.5254H4.11882V0.280256H0V30.3814H19.3281V28.5254ZM86.4615 55.7751L87.4068 56.5175C86.5627 57.6986 85.398 58.6772 83.9125 59.4533C82.427 60.2295 80.9922 60.6176 79.5911 60.6176C78.1901 60.6176 77.076 60.2126 76.2151 59.3859C75.371 58.576 74.949 57.4792 74.949 56.1463C74.949 53.6153 76.2826 51.135 78.9497 48.7053C81.6337 46.2588 84.3345 45.0439 87.086 45.0439C88.8922 45.0439 89.7869 45.7526 89.7869 47.1868C89.7869 48.6547 88.8416 50.1564 86.9341 51.6581C85.0266 53.1766 82.3426 54.5434 78.899 55.7751C79.1354 56.3994 79.5236 56.8887 80.0469 57.2599C80.5702 57.6142 81.1104 57.7829 81.6505 57.7829C82.8322 57.7829 84.4358 57.108 86.4615 55.7751ZM78.6965 54.5434C80.9078 53.7672 82.8153 52.8054 84.4021 51.6581C85.9888 50.5107 86.7991 49.4477 86.7991 48.5029C86.7991 48.1317 86.6472 47.828 86.3771 47.558C86.107 47.2711 85.7862 47.1362 85.4318 47.1362C84.1488 47.1362 82.7478 47.9461 81.2623 49.549C79.7599 51.1519 78.9159 52.8054 78.6965 54.5434ZM69.7161 44.4703L68.3994 49.4477L73.7505 48.8235L72.552 50.7638L67.9605 51.3713C67.5892 52.8561 66.9984 55.0833 66.1375 58.0698C64.3144 64.5489 63.3859 68.6491 63.3859 70.3701L60.7526 71.7199C60.7526 69.3746 61.7654 64.8189 63.7911 58.0698C64.8377 54.7121 65.4791 52.5355 65.7323 51.5737C64.7701 51.8268 63.8924 51.9449 63.099 51.9449C61.5291 51.9449 60.7526 51.3375 60.7526 50.1058C60.7526 49.414 61.2759 48.5872 62.3225 47.6255C63.8248 46.2419 65.6142 44.9933 67.7073 43.9303C69.3279 38.4298 70.4926 34.9708 71.2016 33.5704C71.9612 32.0856 72.6702 31.0226 73.3116 30.3814H70.3407L61.9005 17.4231C56.1105 25.3027 41.4245 46.4613 41.4245 56.4669C41.4245 57.7661 41.8972 58.4072 42.8594 58.4072C43.6359 58.4072 44.3955 57.8336 45.172 56.6693L46.0329 57.378C45.1045 58.8291 44.2942 59.8752 43.619 60.5163C42.9438 61.1744 42.201 61.495 41.3739 61.495C40.5636 61.495 39.8884 61.1575 39.3651 60.4995C38.8418 59.8414 38.5886 59.0147 38.5886 58.036C38.5886 47.3386 54.7432 24.2735 60.837 15.8202L50.675 0.280256H56.1105L63.7911 12.0406L73.0078 0.280256H75.3542L64.8714 13.6773L75.0672 29.3184C75.8606 28.9978 76.6708 28.846 77.498 28.846C78.764 28.846 79.6418 29.2003 80.1651 29.909C80.6884 30.6176 80.9247 31.4613 80.874 32.423C80.739 35.882 77.0084 39.8808 69.7161 44.4703ZM76.2995 32.3387C74.7633 32.3387 73.6323 33.0811 72.8896 34.5659C72.3157 35.7132 71.8093 37.0968 71.3704 38.7166C70.9315 40.3195 70.6108 41.4331 70.4251 42.0406C71.9274 41.1126 73.548 39.8471 75.2698 38.261C77.0084 36.675 77.8862 35.2914 77.9537 34.1103C78.0044 32.9292 77.4473 32.3387 76.2995 32.3387ZM66.3063 49.6502L67.2178 46.0226C66.1712 46.4613 65.3609 46.9168 64.7701 47.3893C64.1793 47.8448 63.8755 48.2498 63.8755 48.5704C63.8755 49.2959 64.6857 49.6502 66.3063 49.6502ZM58.2881 43.1879C56.7519 43.1879 55.9754 42.5805 55.9754 41.3488C55.9754 40.657 56.178 40.0833 56.5663 39.6109C56.9376 39.1553 57.444 38.9191 58.0349 38.9191C58.6425 38.9191 59.1321 39.0878 59.5203 39.459C59.9086 39.8133 60.0943 40.2689 60.0943 40.8426C60.0943 41.4163 59.9255 41.9562 59.6047 42.4455C59.2671 42.9517 58.8282 43.1879 58.2881 43.1879ZM57.7479 55.3195L58.575 56.0113C57.9167 57.2767 57.0389 58.3566 55.9586 59.2509C54.8782 60.1451 53.8992 60.5838 53.0214 60.5838C51.4853 60.5838 50.7256 59.5208 50.7256 57.378C50.7256 54.7121 51.8229 51.2531 54.0173 46.9674C54.5068 46.0394 54.7938 45.4995 54.8782 45.3308L56.6338 46.3938C56.0598 47.4399 55.3677 49.0934 54.5237 51.3713C53.6797 53.6491 53.2746 55.1002 53.2746 55.7582C53.2746 56.3994 53.4096 56.8549 53.6797 57.1249C53.9498 57.4117 54.2874 57.5467 54.6588 57.5467C55.4015 57.5467 56.4312 56.8043 57.7479 55.3195ZM46.1173 0.280256H44.2604V20.6795C44.2604 28.2386 37.1875 29.1835 34.7905 29.1835C34.7905 29.1835 27.1437 29.7234 27.1437 20.6795V0.280256H22.6198V20.6795C22.6198 31.5625 34.3854 30.9888 34.3854 30.9888C45.7797 30.9888 46.1173 22.5187 46.1173 20.6795V0.280256ZM102.548 0.280256H100.692V20.6795C100.692 28.2386 93.6188 29.1835 91.2386 29.1835C91.2386 29.1835 83.5749 29.7234 83.5749 20.6795V0.280256H79.051V20.6795C79.051 31.5625 90.8166 30.9888 90.8166 30.9888C102.211 30.9888 102.548 22.5187 102.548 20.6795V0.280256ZM113.74 16.8157C112.491 16.8494 111.343 16.8494 110.364 16.8494V30.3814H105.84V0.280256H110.364C115.091 0.280256 124.679 0.162145 124.679 8.71668C124.679 13.5254 121.758 15.5671 118.382 16.4444L128.409 30.3814H123.362L113.74 16.8157ZM115.209 15.1284C116.002 14.9934 116.779 14.7572 117.437 14.3353C117.758 14.0991 118.045 13.846 118.332 13.5254C118.636 13.188 118.922 12.783 119.074 12.3612C119.328 11.8719 119.496 11.332 119.615 10.8089C119.733 10.1509 119.783 9.40847 119.783 8.71668C119.581 2.17002 114.517 1.71445 113.605 1.71445H110.364V15.2465H113.605C114.145 15.2465 114.686 15.2127 115.209 15.1284ZM151.789 0.280256L142.234 15.2802L132.241 0.280256H126.772L138.571 17.9124V30.3814H143.095V17.3893L154 0.280256H151.789Z" fill="url(#paint0_linear_3055_2437)"/>
</g>
<defs>
<linearGradient id="paint0_linear_3055_2437" x1="154" y1="1.99333" x2="1.02802e-06" y2="70.0067" gradientUnits="userSpaceOnUse">
<stop stop-color="#CC9933"/>
<stop offset="0.247956" stop-color="#F2D28C"/>
<stop offset="0.434171" stop-color="#BF8500"/>
<stop offset="0.645215" stop-color="#F2D28C"/>
<stop offset="0.868674" stop-color="#916008"/>
<stop offset="1" stop-color="#BF8500"/>
</linearGradient>
<clipPath id="clip0_3055_2437">
<rect width="154" height="72" fill="white"/>
</clipPath>
</defs>
</svg>
